<svg xmlns="http://www.w3.org/2000/svg" viewBox="0 0 56 56"><defs><style>.a{fill:none;}.b,.d{fill:#cea276;}.c,.d{stroke:none;}</style></defs><g transform="translate(-232 -449)"><g class="a" transform="translate(232 449)"><path class="c" d="M28,0A28,28,0,1,1,0,28,28,28,0,0,1,28,0Z"/><path class="d" d="M 28 2 C 24.48913955688477 2 21.08435821533203 2.687160491943359 17.88024139404297 4.042388916015625 C 14.78442001342773 5.351810455322266 12.00366973876953 7.226779937744141 9.615219116210938 9.615219116210938 C 7.226779937744141 12.00366973876953 5.351810455322266 14.78442001342773 4.042388916015625 17.88024139404297 C 2.687160491943359 21.08435821533203 2 24.48913955688477 2 28 C 2 31.51086044311523 2.687160491943359 34.91564178466797 4.042388916015625 38.11975860595703 C 5.351810455322266 41.21557998657227 7.226779937744141 43.99633026123047 9.615219116210938 46.38478088378906 C 12.00366973876953 48.77322006225586 14.78442001342773 50.64818954467773 17.88024139404297 51.95761108398438 C 21.08435821533203 53.31283950805664 24.48913955688477 54 28 54 C 31.51086044311523 54 34.91564178466797 53.31283950805664 38.11975860595703 51.95761108398438 C 41.21557998657227 50.64818954467773 43.99633026123047 48.77322006225586 46.38478088378906 46.38478088378906 C 48.77322006225586 43.99633026123047 50.64818954467773 41.21557998657227 51.95761108398438 38.11975860595703 C 53.31283950805664 34.91564178466797 54 31.51086044311523 54 28 C 54 24.48913955688477 53.31283950805664 21.08435821533203 51.95761108398438 17.88024139404297 C 50.64818954467773 14.78442001342773 48.77322006225586 12.00366973876953 46.38478088378906 9.615219116210938 C 43.99633026123047 7.226779937744141 41.21557998657227 5.351810455322266 38.11975860595703 4.042388916015625 C 34.91564178466797 2.687160491943359 31.51086044311523 2 28 2 M 28 0 C 43.46397018432617 0 56 12.53602981567383 56 28 C 56 43.46397018432617 43.46397018432617 56 28 56 C 12.53602981567383 56 0 43.46397018432617 0 28 C 0 12.53602981567383 12.53602981567383 0 28 0 Z"/></g><g transform="translate(248.049 465.049)"><path class="b" d="M16.432,0H7.469A7.469,7.469,0,0,0,0,7.469v8.963A7.469,7.469,0,0,0,7.469,23.9h8.963A7.469,7.469,0,0,0,23.9,16.432V7.469A7.469,7.469,0,0,0,16.432,0ZM21.66,16.432a5.234,5.234,0,0,1-5.228,5.228H7.469a5.234,5.234,0,0,1-5.228-5.228V7.469A5.234,5.234,0,0,1,7.469,2.241h8.963A5.234,5.234,0,0,1,21.66,7.469Z"/><path class="b" d="M9.975,4a5.975,5.975,0,1,0,5.975,5.975A5.975,5.975,0,0,0,9.975,4Zm0,9.71A3.735,3.735,0,1,1,13.71,9.975,3.739,3.739,0,0,1,9.975,13.71Z" transform="translate(1.975 1.975)"/><ellipse class="b" cx="0.796" cy="0.796" rx="0.796" ry="0.796" transform="translate(17.578 4.731)"/></g></g></svg>