<svg xmlns="http://www.w3.org/2000/svg" viewBox="0 0 56 56"><defs><style>.a,.d{fill:none;}.a{stroke:#cea276;stroke-width:2px;}.b{fill:#cea276;}.c{stroke:none;}</style></defs><g transform="translate(-160 -449)"><g class="a" transform="translate(160 449)"><circle class="c" cx="28" cy="28" r="28"/><circle class="d" cx="28" cy="28" r="27"/></g><path class="b" d="M31,15.5a3.585,3.585,0,0,0-3.6-3.6,3.225,3.225,0,0,0-2.6,1.2,16.349,16.349,0,0,0-7.9-2.4L18.4,6l4.2.7v.2a3.1,3.1,0,1,0,3.1-3.1,2.99,2.99,0,0,0-2.5,1.3L18,4.3a.8.8,0,0,0-.9.5l-1.9,5.8a16.958,16.958,0,0,0-7.8,2,3.631,3.631,0,0,0-2.6-1.1A3.8,3.8,0,0,0,1,15.3a3.584,3.584,0,0,0,1.9,3.2c0,.3-.1.5-.1.8,0,4.8,5.8,8.7,13,8.7s13-3.9,13-8.7v-.6A3.282,3.282,0,0,0,31,15.5Zm-5.3-10A1.538,1.538,0,0,1,27.2,7a1.5,1.5,0,1,1-3,0A1.473,1.473,0,0,1,25.7,5.5ZM3.3,16.9a2.36,2.36,0,0,1-.7-1.6,2.112,2.112,0,0,1,2.1-2.1,2.836,2.836,0,0,1,1.3.4,10.349,10.349,0,0,0-2.7,3.3Zm6.9.9a1.3,1.3,0,1,1,1.3,1.3A1.324,1.324,0,0,1,10.2,17.8ZM20.7,24a8.7,8.7,0,0,1-4.6,1.4,9.6,9.6,0,0,1-5-1.4.71.71,0,0,1-.2-1.1.8.8,0,0,1,1.1-.3c.2.1,4.1,2.5,7.8,0a.885.885,0,0,1,1.1.2,1.063,1.063,0,0,1-.2,1.2Zm-.5-4.7a1.4,1.4,0,1,1,1.4-1.4A1.367,1.367,0,0,1,20.2,19.3Zm8.1-2.1A7.668,7.668,0,0,0,26,14a2.168,2.168,0,0,1,1.4-.5,2.006,2.006,0,0,1,2,2,1.848,1.848,0,0,1-1.1,1.7Z" transform="translate(172 460.2)"/></g></svg>