<svg xmlns="http://www.w3.org/2000/svg" viewBox="0 0 56 56"><defs><style>.a,.d{fill:none;}.a{stroke:#cea276;stroke-width:2px;}.b{fill:#cea276;}.c{stroke:none;}</style></defs><g transform="translate(-232 -449)"><g class="a" transform="translate(232 449)"><circle class="c" cx="28" cy="28" r="28"/><circle class="d" cx="28" cy="28" r="27"/></g><g transform="translate(248 466)"><path class="b" d="M-899.986-4133.484c-2.924,0-6.677-.046-8.2-.133-1.445-.1-2.153-.324-2.8-1.468-.694-1.181-1.017-3.294-1.017-6.649v-.013c0-3.4.313-5.451,1.017-6.662.652-1.151,1.36-1.372,2.8-1.454,1.5-.1,5.355-.138,8.195-.138,2.975,0,6.688.037,8.189.139,1.443.081,2.151.3,2.8,1.453.707,1.2,1.022,3.26,1.022,6.664v.012c0,3.406-.314,5.457-1.02,6.65-.642,1.143-1.351,1.368-2.8,1.467C-893.319-4133.529-897.069-4133.484-899.986-4133.484Zm-3.006-12.763h0v9.009l7.507-4.5-7.507-4.5Z" transform="translate(912 4153)"/></g></g></svg>